<?xml version="1.0" encoding="UTF-8" standalone="no"?>
<!-- Created with Inkscape (http://www.inkscape.org/) -->

<svg
   width="160mm"
   height="35mm"
   viewBox="0 0 160 35"
   version="1.1"
   id="svg1"
   xml:space="preserve"
   inkscape:version="1.4.2 (f4327f4, 2025-05-13)"
   sodipodi:docname="Banner_Dark.svg"
   xmlns:inkscape="http://www.inkscape.org/namespaces/inkscape"
   xmlns:sodipodi="http://sodipodi.sourceforge.net/DTD/sodipodi-0.dtd"
   xmlns="http://www.w3.org/2000/svg"
   xmlns:svg="http://www.w3.org/2000/svg"><sodipodi:namedview
     id="namedview1"
     pagecolor="#505050"
     bordercolor="#eeeeee"
     borderopacity="1"
     inkscape:showpageshadow="0"
     inkscape:pageopacity="0"
     inkscape:pagecheckerboard="0"
     inkscape:deskcolor="#505050"
     inkscape:document-units="mm"
     inkscape:zoom="1.28"
     inkscape:cx="434.37499"
     inkscape:cy="50.390624"
     inkscape:window-width="2560"
     inkscape:window-height="1351"
     inkscape:window-x="2391"
     inkscape:window-y="-9"
     inkscape:window-maximized="1"
     inkscape:current-layer="layer1" /><defs
     id="defs1" /><g
     inkscape:label="Layer 1"
     inkscape:groupmode="layer"
     id="layer1"><text
       xml:space="preserve"
       style="font-style:normal;font-variant:normal;font-weight:normal;font-stretch:normal;font-size:32.1791px;font-family:Roboto;-inkscape-font-specification:'Roboto, Normal';font-variant-ligatures:normal;font-variant-caps:normal;font-variant-numeric:normal;font-variant-east-asian:normal;text-align:start;writing-mode:lr-tb;direction:ltr;text-anchor:start;display:inline;fill:#ffffff;fill-opacity:1;stroke-width:0.603356"
       x="44.05983"
       y="25.169846"
       id="text1"
       transform="scale(0.90043001,1.1105805)"><tspan
         id="tspan1"
         style="font-style:normal;font-variant:normal;font-weight:normal;font-stretch:normal;font-size:25.4px;font-family:Arial;-inkscape-font-specification:Arial;font-variant-ligatures:normal;font-variant-caps:normal;font-variant-numeric:normal;font-variant-east-asian:normal;text-align:start;text-anchor:start;fill:#ffffff;fill-opacity:1;stroke-width:0.603356"
         x="44.05983"
         y="25.169846"
         sodipodi:role="line">NEXARION</tspan><tspan
         style="font-style:normal;font-variant:normal;font-weight:normal;font-stretch:normal;font-size:32.1791px;font-family:Arial;-inkscape-font-specification:Arial;font-variant-ligatures:normal;font-variant-caps:normal;font-variant-numeric:normal;font-variant-east-asian:normal;text-align:start;text-anchor:start;fill:#ffffff;fill-opacity:1;stroke-width:0.603356"
         x="44.05983"
         y="65.393723"
         id="tspan2"
         sodipodi:role="line" /></text><path
       style="display:inline;fill:#00a0ff;fill-opacity:1;stroke-width:0.169375"
       d="M 9.2493546,5.253505 17.583956,12.549226 28.272744,3.1933739 24.646678,0.02902645 34.978468,0 34.952446,9.2117815 31.544177,6.0379372 17.677884,18.237301 6.5327461,8.4207853 c 0,0 -0.2502277,-0.2464058 -0.9083034,-0.020173 C 4.760926,8.6974569 4.5347063,9.5311617 4.5347063,9.5311617 l 0.0053,19.1611143 c 0,0 0.01397,0.883547 0.8229964,1.552377 0.7888897,0.65218 1.7108751,0.656094 1.7108751,0.656094 l 2.5407965,0.0071 5.72e-4,-14.098001 4.5245557,3.969354 -0.0016,10.125959 5.077571,-0.0012 -0.129308,-8.108886 4.787183,-4.214966 -0.114129,12.335213 c 0,0 1.252453,-0.003 1.843214,-0.287276 0.412364,-0.198372 1.136811,-0.866453 1.409861,-1.201553 0.300665,-0.369006 0.354355,-1.059379 0.354355,-1.059379 l -0.0065,-12.816397 4.517676,-3.964508 0.05333,17.483438 c 0,0 -0.164675,1.491419 -0.630648,2.218106 -0.671419,1.047079 -1.815973,2.217313 -3.234632,2.971133 -1.022625,0.543382 -2.817716,0.732724 -2.817716,0.732724 l -18.3847452,0.03382 c 0,0 -1.4550241,-0.06603 -2.6050985,-0.478842 C 2.9790442,34.087417 1.4214,32.685348 0.76908703,31.686192 -0.11404411,30.333486 0.00541596,28.695729 0.00541596,28.695729 l 0.00501,-19.168244 c 0,0 -0.049767,-1.6815325 1.36849614,-3.1800936 C 2.6785888,4.9741411 4.0829596,4.1624246 6.2631014,4.1878358 8.1698902,4.2100408 9.2494246,5.253457 9.2494246,5.253457 Z"
       id="path3"
       sodipodi:nodetypes="cccccccccsccscccccccccssccccssccssccsscc" /></g><g
     inkscape:groupmode="layer"
     id="layer2"
     inkscape:label="Layer 2" /></svg>
