<?xml version="1.0" encoding="UTF-8" standalone="no"?>
<!-- Created with Inkscape (http://www.inkscape.org/) -->

<svg
   width="181mm"
   height="61mm"
   viewBox="0 0 181 61"
   version="1.1"
   id="svg1"
   xml:space="preserve"
   inkscape:version="1.4.2 (f4327f4, 2025-05-13)"
   sodipodi:docname="Banner_Dark.svg"
   xmlns:inkscape="http://www.inkscape.org/namespaces/inkscape"
   xmlns:sodipodi="http://sodipodi.sourceforge.net/DTD/sodipodi-0.dtd"
   xmlns="http://www.w3.org/2000/svg"
   xmlns:svg="http://www.w3.org/2000/svg"><sodipodi:namedview
     id="namedview1"
     pagecolor="#505050"
     bordercolor="#eeeeee"
     borderopacity="1"
     inkscape:showpageshadow="0"
     inkscape:pageopacity="0"
     inkscape:pagecheckerboard="0"
     inkscape:deskcolor="#505050"
     inkscape:document-units="mm"
     inkscape:zoom="2.56"
     inkscape:cx="330.46875"
     inkscape:cy="156.44531"
     inkscape:window-width="2560"
     inkscape:window-height="1351"
     inkscape:window-x="2391"
     inkscape:window-y="-9"
     inkscape:window-maximized="1"
     inkscape:current-layer="layer1" /><defs
     id="defs1" /><g
     inkscape:label="Layer 1"
     inkscape:groupmode="layer"
     id="layer1"><text
       xml:space="preserve"
       style="font-size:5.92334px;text-align:start;writing-mode:lr-tb;direction:ltr;text-anchor:start;display:inline;fill:#ffffff;stroke-width:0.493611;fill-opacity:1"
       x="64.729134"
       y="34.078659"
       id="text1"
       transform="scale(0.89299045,1.1198328)"><tspan
         id="tspan1"
         style="font-style:normal;font-variant:normal;font-weight:bold;font-stretch:normal;font-size:26.326px;font-family:Arial;-inkscape-font-specification:'Arial, Bold';font-variant-ligatures:normal;font-variant-caps:normal;font-variant-numeric:normal;font-variant-east-asian:normal;text-align:start;text-anchor:start;stroke-width:0.493611;fill:#ffffff;fill-opacity:1"
         x="64.729134"
         y="34.078659"
         sodipodi:role="line">NEXARION</tspan><tspan
         style="font-style:normal;font-variant:normal;font-weight:bold;font-stretch:normal;font-size:13.163px;font-family:Arial;-inkscape-font-specification:'Arial, Bold';font-variant-ligatures:normal;font-variant-caps:normal;font-variant-numeric:normal;font-variant-east-asian:normal;text-align:start;text-anchor:start;stroke-width:0.493611;fill:#ffffff;fill-opacity:1"
         x="64.729134"
         y="48.676941"
         id="tspan2"
         sodipodi:role="line" /></text><text
       xml:space="preserve"
       style="font-style:normal;font-variant:normal;font-weight:bold;font-stretch:normal;font-size:10.6563px;font-family:Arial;-inkscape-font-specification:'Arial, Bold';font-variant-ligatures:normal;font-variant-caps:normal;font-variant-numeric:normal;font-variant-east-asian:normal;text-align:start;writing-mode:lr-tb;direction:ltr;text-anchor:start;display:inline;fill:#646464;stroke-width:0.399611;fill-opacity:1"
       x="59.001183"
       y="51.370907"
       id="text6"><tspan
         sodipodi:role="line"
         id="tspan6"
         style="stroke-width:0.399611;fill:#646464;fill-opacity:1"
         x="59.001183"
         y="51.370907">FINANCE MANAGER</tspan></text><path
       style="display:inline;fill:#143d60;stroke-width:0.264583;fill-opacity:1"
       d="m 14.286745,9.790302 12.171905,12.19045 15.609971,-15.63273 -5.295533,-5.28732 15.088613,-0.0485 -0.03801,15.392 -4.977451,-5.30319 -20.250418,20.38396 -16.276434,-16.40245 c 0,0 -0.3654339,-0.41172 -1.3264929,-0.0337 -1.261085,0.496 -1.591458,1.88904 -1.591458,1.88904 l 0.0077,32.01638 c 0,0 0.0204,1.47632 1.20191,2.59387 1.152099,1.08973 2.4985739,1.09627 2.4985739,1.09627 l 3.710598,0.0122 8.35e-4,-23.5564 6.607693,6.63241 -0.0023,16.9195 7.41532,-0.002 -0.188849,-13.54917 6.991231,-7.0428 -0.166671,20.61095 c 0,0 1.829091,-0.005 2.691845,-0.48001 0.602217,-0.33146 1.660202,-1.44776 2.058963,-2.00768 0.439096,-0.61657 0.517506,-1.77012 0.517506,-1.77012 l -0.0097,-21.41493 6.597645,-6.62431 0.07789,29.21314 c 0,0 -0.240492,2.49202 -0.921002,3.70624 -0.980544,1.74957 -2.652059,3.70492 -4.723877,4.96448 -1.493449,0.90794 -4.115009,1.22431 -4.115009,1.22431 l -26.849115,0.0563 c 0,0 -2.1249269,-0.11031 -3.8045039,-0.8001 -1.868583,-0.7674 -4.143376,-3.11012 -5.096018,-4.77962 -1.28973005,-2.26024 -1.11527005,-4.99677 -1.11527005,-4.99677 l 0.0073,-32.02829 c 0,0 -0.07268,-2.80968 1.99856005,-5.31363 1.898045,-2.29457 3.948997,-3.65087 7.132891,-3.60841 2.7846889,0.0371 4.3612489,1.78055 4.3612489,1.78055 z"
       id="path3"
       sodipodi:nodetypes="cccccccccsccscccccccccssccccssccssccsscc" /></g><g
     inkscape:groupmode="layer"
     id="layer2"
     inkscape:label="Layer 2" /></svg>
