<?xml version="1.0" encoding="UTF-8" standalone="no"?>
<!-- Created with Inkscape (http://www.inkscape.org/) -->

<svg
   width="35mm"
   height="35mm"
   viewBox="0 0 35 35"
   version="1.1"
   id="svg1"
   xml:space="preserve"
   inkscape:version="1.4.2 (f4327f4, 2025-05-13)"
   sodipodi:docname="Logo_Dark.svg"
   xmlns:inkscape="http://www.inkscape.org/namespaces/inkscape"
   xmlns:sodipodi="http://sodipodi.sourceforge.net/DTD/sodipodi-0.dtd"
   xmlns="http://www.w3.org/2000/svg"
   xmlns:svg="http://www.w3.org/2000/svg"><sodipodi:namedview
     id="namedview1"
     pagecolor="#505050"
     bordercolor="#eeeeee"
     borderopacity="1"
     inkscape:showpageshadow="0"
     inkscape:pageopacity="0"
     inkscape:pagecheckerboard="0"
     inkscape:deskcolor="#505050"
     inkscape:document-units="mm"
     inkscape:zoom="5.6568543"
     inkscape:cx="52.856232"
     inkscape:cy="64.258329"
     inkscape:window-width="2560"
     inkscape:window-height="1351"
     inkscape:window-x="2391"
     inkscape:window-y="-9"
     inkscape:window-maximized="1"
     inkscape:current-layer="layer1" /><defs
     id="defs1" /><g
     inkscape:label="Layer 1"
     inkscape:groupmode="layer"
     id="layer1"><path
       style="display:inline;fill:#00a0ff;fill-opacity:1;stroke-width:0.169375"
       d="M 9.2721274,5.2568899 17.606729,12.552611 28.295517,3.1967588 24.669451,0.03241135 35.001241,0.0033849 34.975219,9.2151664 31.56695,6.0413221 17.700657,18.240686 6.5555172,8.4241702 c 0,0 -0.2502279,-0.2464058 -0.9083042,-0.020173 C 4.7836963,8.7008418 4.5574762,9.5345466 4.5574762,9.5345466 l 0.00527,19.1611144 c 0,0 0.013968,0.883547 0.8229971,1.552377 0.7888896,0.65218 1.7108762,0.656094 1.7108762,0.656094 l 2.5407973,0.0071 5.722e-4,-14.098001 4.524556,3.969354 -0.0016,10.125959 5.077571,-0.0012 -0.129308,-8.108886 4.787183,-4.214966 -0.114129,12.335213 c 0,0 1.252453,-0.003 1.843214,-0.287276 0.412364,-0.198372 1.136811,-0.866453 1.409861,-1.201553 0.300665,-0.369006 0.354355,-1.059379 0.354355,-1.059379 L 27.383224,15.5541 31.9009,11.589592 31.954233,29.07303 c 0,0 -0.164675,1.491419 -0.630648,2.218106 -0.671419,1.047079 -1.815973,2.217313 -3.234632,2.971133 -1.022625,0.543382 -2.817716,0.732724 -2.817716,0.732724 L 6.8864898,35.02881 c 0,0 -1.4550246,-0.06603 -2.6051,-0.478842 C 3.0018132,34.090802 1.4441689,32.688733 0.79185592,31.689577 -0.09127526,30.336871 0.02818476,28.699114 0.02818476,28.699114 L 0.03319418,9.5308699 c 0,0 -0.04976727,-1.6815325 1.36849622,-3.1800936 C 2.7013572,4.977526 4.1057282,4.1658095 6.2858711,4.1912207 8.1926612,4.2134256 9.2721966,5.2568419 9.2721966,5.2568419 Z"
       id="path3"
       sodipodi:nodetypes="cccccccccsccscccccccccssccccssccssccsscc" /></g><g
     inkscape:groupmode="layer"
     id="layer2"
     inkscape:label="Layer 2" /></svg>
