<svg xmlns="http://www.w3.org/2000/svg" width="512" height="512" viewBox="0 0 512 512" version="1.1"><path d="M 291 31 C 288.940 31.660, 288.852 31.816, 290.500 31.885 C 291.600 31.931, 293.175 31.533, 294 31 C 295.752 29.868, 294.536 29.868, 291 31 M 371.389 78.500 C 371.390 85.650, 371.550 88.444, 371.742 84.708 C 371.935 80.973, 371.934 75.123, 371.739 71.708 C 371.545 68.294, 371.387 71.350, 371.389 78.500 M 225 68.313 C 225 68.485, 226.463 69.948, 228.250 71.563 L 231.500 74.500 228.563 71.250 C 225.825 68.221, 225 67.540, 225 68.313 M 420.776 120.733 C 423.128 120.945, 426.728 120.942, 428.776 120.727 C 430.824 120.512, 428.900 120.339, 424.500 120.343 C 420.100 120.346, 418.424 120.522, 420.776 120.733 M 450.728 120.722 C 452.503 120.943, 455.653 120.946, 457.728 120.730 C 459.802 120.513, 458.350 120.333, 454.500 120.328 C 450.650 120.324, 448.952 120.501, 450.728 120.722 M 470.292 120.742 C 474.027 120.935, 479.877 120.934, 483.292 120.739 C 486.706 120.545, 483.650 120.387, 476.500 120.389 C 469.350 120.390, 466.556 120.550, 470.292 120.742 M 217.437 145.250 L 214.500 148.500 217.750 145.563 C 220.779 142.825, 221.460 142, 220.687 142 C 220.515 142, 219.052 143.463, 217.437 145.250 M 207.946 155.750 L 204.500 159.500 208.250 156.054 C 211.740 152.846, 212.460 152, 211.696 152 C 211.529 152, 209.842 153.688, 207.946 155.750 M 371.320 166 C 371.320 169.575, 371.502 171.037, 371.723 169.250 C 371.945 167.463, 371.945 164.537, 371.723 162.750 C 371.502 160.963, 371.320 162.425, 371.320 166 M 174.437 189.250 L 171.500 192.500 174.750 189.563 C 177.779 186.825, 178.460 186, 177.687 186 C 177.515 186, 176.052 187.463, 174.437 189.250 M 163.946 198.750 L 160.500 202.500 164.250 199.054 C 167.740 195.846, 168.460 195, 167.696 195 C 167.529 195, 165.842 196.688, 163.946 198.750 M 409.400 218.500 C 409.401 226.750, 409.556 229.992, 409.744 225.704 C 409.932 221.417, 409.931 214.667, 409.742 210.704 C 409.552 206.742, 409.399 210.250, 409.400 218.500 M 261.437 219.250 L 258.500 222.500 261.750 219.563 C 264.779 216.825, 265.460 216, 264.687 216 C 264.515 216, 263.052 217.463, 261.437 219.250 M 293.653 232.750 C 293.230 233.433, 321.599 233.416, 354.500 232.714 C 361.650 232.562, 350.989 232.338, 330.809 232.218 C 310.629 232.098, 293.909 232.338, 293.653 232.750 M 372.999 261.798 L 373.497 286.500 373.767 262.569 C 373.916 249.406, 373.691 238.291, 373.269 237.867 C 372.846 237.443, 372.724 248.213, 372.999 261.798 M 287.468 295 C 287.468 326.075, 287.594 338.788, 287.749 323.250 C 287.904 307.713, 287.904 282.288, 287.749 266.750 C 287.594 251.213, 287.468 263.925, 287.468 295 M 374.405 319.500 C 374.406 328.300, 374.559 331.766, 374.745 327.203 C 374.930 322.639, 374.929 315.439, 374.742 311.203 C 374.555 306.966, 374.404 310.700, 374.405 319.500 M 253 372.300 L 253.499 427.500 253.758 373.059 C 253.901 343.116, 253.676 318.276, 253.259 317.858 C 252.841 317.441, 252.725 341.939, 253 372.300 M 52 322.046 C 50.905 322.787, 51.309 322.880, 53.500 322.390 C 57.177 321.567, 57.975 320.995, 55.417 321.015 C 54.362 321.024, 52.825 321.487, 52 322.046 M 409.232 339 C 409.232 340.925, 409.438 341.712, 409.689 340.750 C 409.941 339.788, 409.941 338.212, 409.689 337.250 C 409.438 336.288, 409.232 337.075, 409.232 339 M 409.440 374.500 C 409.440 389.900, 409.579 396.060, 409.748 388.189 C 409.917 380.319, 409.917 367.719, 409.747 360.189 C 409.578 352.660, 409.439 359.100, 409.440 374.500 M 287.440 381.500 C 287.440 396.900, 287.579 403.060, 287.748 395.189 C 287.917 387.319, 287.917 374.719, 287.747 367.189 C 287.578 359.660, 287.439 366.100, 287.440 381.500 M 287.451 449.500 C 287.451 469.300, 287.585 477.542, 287.748 467.815 C 287.912 458.088, 287.912 441.888, 287.749 431.815 C 287.586 421.742, 287.452 429.700, 287.451 449.500 M 458 454.500 C 455.571 456.975, 453.809 459, 454.084 459 C 454.359 459, 456.571 456.975, 459 454.500 C 461.429 452.025, 463.191 450, 462.916 450 C 462.641 450, 460.429 452.025, 458 454.500 M 252.378 477 C 252.378 483.325, 252.541 485.913, 252.739 482.750 C 252.937 479.587, 252.937 474.413, 252.739 471.250 C 252.541 468.087, 252.378 470.675, 252.378 477 M 172 483.313 C 172 483.485, 173.463 484.948, 175.250 486.563 L 178.500 489.500 175.563 486.250 C 172.825 483.221, 172 482.540, 172 483.313 M 297.500 494 C 299.150 494.420, 301.850 494.765, 303.500 494.767 C 306.022 494.769, 305.863 494.638, 302.500 493.943 C 297.434 492.895, 293.341 492.942, 297.500 494" stroke="none" fill="#73a2e2" fill-rule="evenodd"/><path d="M 360 13.765 C 358.625 13.948, 356.825 14.383, 356 14.732 C 355.175 15.081, 352.025 15.916, 349 16.589 C 345.975 17.262, 339.900 18.795, 335.500 19.996 C 322.137 23.643, 316.707 25.056, 312 26.110 C 309.525 26.663, 306.600 27.514, 305.500 28 C 304.400 28.486, 301.250 29.384, 298.500 29.996 C 291.708 31.507, 283.968 33.455, 275 35.911 C 270.875 37.040, 265.250 38.449, 262.500 39.042 C 259.750 39.634, 256.600 40.516, 255.500 41.001 C 254.400 41.486, 251.250 42.394, 248.500 43.018 C 243.327 44.193, 237.186 45.705, 226 48.560 C 221.911 49.604, 218.665 51.126, 217.250 52.665 C 213.220 57.047, 211.610 54.920, 239.849 82.500 C 253.910 96.233, 254.174 96.570, 253.695 100.185 C 253.304 103.145, 250.191 107.474, 237.878 122.185 C 229.446 132.258, 220.300 142.975, 217.552 146 C 210.381 153.896, 172.702 191.510, 164.914 198.548 C 147.353 214.417, 127.656 230.841, 120 236 C 118.776 236.825, 115.012 239.564, 111.637 242.086 C 105.979 246.315, 90.122 257.160, 86.175 259.500 C 85.248 260.050, 80.667 263.011, 75.995 266.081 C 65.032 273.283, 48.413 283, 47.056 283 C 46.475 283, 46 283.406, 46 283.902 C 46 284.398, 44.763 285.301, 43.250 285.907 C 41.737 286.514, 38.700 288.042, 36.500 289.305 C 34.300 290.567, 27.550 294.234, 21.500 297.455 C 6.888 305.233, 7.148 305.048, 6.470 308.138 C 4.997 314.845, 10.579 323.961, 17.294 325.815 C 23.469 327.521, 63.881 320.788, 88 314.037 C 92.125 312.882, 97.300 311.493, 99.500 310.951 C 101.700 310.408, 104.400 309.568, 105.500 309.083 C 106.600 308.599, 110.650 307.222, 114.500 306.023 C 118.350 304.824, 122.918 303.204, 124.651 302.422 C 126.384 301.640, 128.240 301, 128.774 301 C 129.614 301, 134.417 299.109, 141.500 295.990 C 142.600 295.506, 145.750 294.125, 148.500 292.922 C 163.748 286.251, 188.916 273.212, 196.800 267.898 C 199.165 266.304, 201.274 265, 201.487 265 C 201.869 265, 210.124 259.429, 220.281 252.317 C 223.151 250.306, 226.850 247.725, 228.500 246.581 C 230.150 245.436, 231.725 244.273, 232 243.996 C 232.275 243.719, 235.875 240.802, 240 237.515 C 250.081 229.482, 251.599 228.165, 264.954 215.869 C 284.391 197.973, 293.476 188.058, 318.359 157.584 C 322.972 151.935, 325.604 150.515, 329.028 151.829 C 330.388 152.351, 338.635 158.453, 347.356 165.389 C 357.002 173.061, 364.089 178, 365.451 178 C 370.894 178, 370.689 180.799, 371.325 97.834 L 371.914 21.168 369.707 17.903 C 367.420 14.519, 364.304 13.191, 360 13.765 M 411.959 123.543 L 409.570 126.086 409.535 302.667 L 409.500 479.248 411.885 481.124 C 413.197 482.156, 414.704 483, 415.234 483 C 418.406 483, 435.035 473.449, 445 465.904 C 451.231 461.187, 466.628 446.106, 470.541 440.888 C 481.104 426.806, 487.696 413.670, 493.344 395.451 C 497.348 382.536, 497.354 382.328, 497.697 253.114 L 498.030 127.729 495.464 124.364 L 492.898 121 453.623 121 L 414.349 121 411.959 123.543 M 292.482 233.945 C 287.821 235.836, 287.940 232.199, 288.228 363.722 L 288.500 487.945 290.662 490.107 C 294.383 493.827, 304.483 494.889, 336.691 494.947 C 355.131 494.981, 366.110 494.632, 366.500 494 C 366.840 493.450, 367.959 493, 368.986 493 C 370.014 493, 371.788 491.814, 372.927 490.365 C 374.973 487.765, 375 486.918, 375.023 426.115 C 375.035 392.227, 374.497 335.929, 373.827 301.009 L 372.608 237.518 370.350 235.259 L 368.091 233 331.295 233.063 C 311.058 233.098, 293.592 233.495, 292.482 233.945 M 171.595 313.527 C 165.768 316.566, 166.066 312.256, 166.032 393.866 C 165.995 481.117, 165.402 475.372, 175.500 485.543 C 184.275 494.382, 187.146 495, 219.404 495 C 241.792 495, 245.205 494.790, 247.903 493.250 C 249.589 492.288, 251.265 490.825, 251.627 490 C 251.989 489.175, 252.501 450.193, 252.765 403.373 C 253.244 318.465, 253.240 318.240, 251.188 316.188 C 247.466 312.466, 242.763 312.011, 208 312.012 C 180.020 312.012, 174.021 312.262, 171.595 313.527" stroke="none" fill="#1981db" fill-rule="evenodd"/></svg>