<svg xmlns="http://www.w3.org/2000/svg" width="1305" height="256" viewBox="0 0 1305 256" version="1.1"><path d="M 1064 71.503 C 1055.129 73.506, 1042.006 80.408, 1034.967 86.773 C 1014.935 104.884, 1007.721 137.712, 1017.948 164.216 C 1022.666 176.444, 1024.550 179.479, 1032.304 187.334 C 1040.525 195.662, 1044.269 198.217, 1055 202.820 C 1063.732 206.565, 1071.345 207.993, 1082.500 207.977 C 1093.707 207.961, 1102.821 205.772, 1113.681 200.489 C 1137.814 188.749, 1151.304 164.191, 1149.655 135 C 1148.917 121.942, 1147.507 116.736, 1141.623 105.343 C 1133.683 89.969, 1117.955 76.859, 1102.124 72.419 C 1094.070 70.160, 1072.266 69.636, 1064 71.503 M 306.502 138.220 C 306.902 174.674, 307.291 204.571, 307.365 204.659 C 307.439 204.746, 313.350 204.957, 320.500 205.128 L 333.500 205.439 334 164.057 L 334.500 122.674 337.671 127.587 C 339.415 130.289, 345.153 138.800, 350.422 146.500 C 363.429 165.508, 369.920 175.066, 380.756 191.168 L 389.955 204.836 402.727 205.194 C 409.752 205.392, 415.841 205.290, 416.257 204.969 C 416.674 204.648, 416.899 174.711, 416.757 138.443 L 416.500 72.500 402.761 72.222 L 389.022 71.944 388.761 113.722 L 388.500 155.500 382.507 146.500 C 379.211 141.550, 375.974 136.825, 375.314 136 C 374.653 135.175, 366.726 123.475, 357.698 110 C 348.669 96.525, 339.275 82.575, 336.822 79 L 332.362 72.500 319.068 72.220 L 305.774 71.940 306.502 138.220 M 448.464 73.239 C 448.199 73.933, 448.098 103.901, 448.241 139.834 L 448.500 205.169 490.466 205.044 C 522.084 204.950, 532.622 204.621, 533.201 203.709 C 533.879 202.642, 534.388 182.328, 533.750 181.789 C 533.612 181.672, 520.450 181.335, 504.500 181.039 L 475.500 180.500 475.223 165.767 L 474.947 151.034 500.723 150.767 L 526.500 150.500 526.500 138.500 L 526.500 126.500 500.723 126.233 L 474.947 125.966 475.223 111.233 L 475.500 96.500 504.282 96.235 L 533.063 95.969 532.782 84.235 L 532.500 72.500 490.723 72.239 C 457.836 72.034, 448.843 72.246, 448.464 73.239 M 556 73.943 C 556 76.103, 557.513 78.912, 566.529 93.500 C 569.929 99, 576.440 109.800, 580.998 117.500 C 585.556 125.200, 590.054 132.621, 590.994 133.991 C 592.608 136.344, 592.606 136.622, 590.961 138.991 C 590.003 140.371, 586.402 146, 582.958 151.500 C 579.514 157, 574.574 164.875, 571.979 169 C 569.385 173.125, 565.608 179.200, 563.585 182.500 C 561.563 185.800, 557.913 191.650, 555.475 195.500 C 550.420 203.484, 549.742 206.570, 553.250 205.630 C 554.487 205.299, 561.847 205.021, 569.604 205.014 L 583.708 205 588.604 196.991 C 591.297 192.587, 595.102 186.399, 597.061 183.241 C 599.020 180.084, 602.822 173.787, 605.510 169.250 C 608.198 164.713, 610.687 161, 611.040 161 C 611.393 161, 612.848 163.137, 614.273 165.750 C 615.699 168.363, 619.357 174.550, 622.402 179.500 C 625.448 184.450, 629.801 191.792, 632.076 195.815 C 634.431 199.980, 637.160 203.491, 638.414 203.967 C 639.625 204.428, 647.227 204.961, 655.308 205.152 C 666.818 205.425, 670.001 205.221, 670.001 204.210 C 670 202.299, 666.937 196.650, 660.129 186 C 656.788 180.775, 652.021 173.125, 649.535 169 C 647.049 164.875, 642.786 157.900, 640.061 153.500 C 629.329 136.165, 629.724 137.123, 631.845 133.603 C 634.653 128.941, 652.006 100.634, 657.725 91.387 C 660.484 86.925, 663.925 81.533, 665.371 79.405 C 670.240 72.239, 669.877 71.998, 654.250 72.014 C 646.688 72.021, 639.498 72.296, 638.274 72.624 C 636.917 72.988, 634.658 75.617, 632.486 79.360 C 630.527 82.737, 626.250 89.775, 622.983 95 C 619.715 100.225, 615.820 106.667, 614.326 109.316 L 611.611 114.131 609.759 110.816 C 608.741 108.992, 605.919 104.350, 603.488 100.500 C 601.057 96.650, 597.861 91.475, 596.387 89 C 594.913 86.525, 591.920 81.688, 589.736 78.250 L 585.765 72 570.883 72 C 556.813 72, 556 72.106, 556 73.943 M 827.735 72.598 C 827.331 73.002, 827 102.958, 827 139.167 L 827 205 841 205 L 855 205 855 182 L 855 159 865.418 159 L 875.837 159 877.805 162.250 C 878.887 164.037, 881.271 168.425, 883.103 172 C 884.934 175.575, 886.818 178.950, 887.289 179.500 C 887.760 180.050, 890.994 185.900, 894.475 192.500 L 900.803 204.500 916.902 204.775 C 928.193 204.968, 933 204.718, 933 203.940 C 933 203.329, 929.570 197.131, 925.379 190.165 C 912.555 168.854, 908.300 161.631, 906.677 158.416 L 905.120 155.332 909.310 153.484 C 915.734 150.652, 923.328 142.863, 926.626 135.722 C 929.297 129.939, 929.497 128.653, 929.458 117.500 C 929.408 102.918, 927.440 96.937, 919.629 87.618 C 915.465 82.651, 912.820 80.653, 905.572 77 L 896.644 72.500 862.557 72.181 C 843.810 72.006, 828.140 72.194, 827.735 72.598 M 960 138.418 L 960 204.837 972.750 205.192 C 979.763 205.387, 986.063 205.144, 986.750 204.651 C 987.728 203.950, 988 189.435, 988 137.878 L 988 72 974 72 L 960 72 960 138.418 M 1176.809 72.750 C 1176.639 73.162, 1176.622 103.087, 1176.771 139.250 L 1177.042 205 1190.521 205 L 1204 205 1204 162.895 L 1204 120.790 1212.250 132.908 C 1216.787 139.572, 1229.529 158.407, 1240.563 174.763 L 1260.627 204.500 1273.563 205.044 C 1280.679 205.343, 1286.838 205.429, 1287.250 205.235 C 1287.662 205.041, 1288 174.984, 1288 138.441 L 1288 72 1274.500 72 L 1261 72 1261 114.700 L 1261 157.400 1256.706 151.450 C 1254.344 148.178, 1251.082 143.417, 1249.456 140.871 C 1247.830 138.326, 1242.126 129.776, 1236.779 121.871 C 1231.433 113.967, 1223.421 102.100, 1218.975 95.500 C 1214.528 88.900, 1210.249 82.718, 1209.465 81.762 C 1208.682 80.806, 1206.901 78.219, 1205.508 76.012 L 1202.975 72 1190.046 72 C 1182.936 72, 1176.979 72.338, 1176.809 72.750 M 727.314 73.769 C 726.662 74.192, 724.704 78.130, 722.964 82.519 C 717.583 96.088, 711.042 112.982, 706.516 125 C 704.134 131.325, 700.143 141.900, 697.647 148.500 C 685.437 180.784, 683.044 187.113, 680.106 194.905 C 678.363 199.527, 677.081 203.744, 677.259 204.276 C 677.446 204.838, 683.602 205.242, 691.984 205.242 L 706.388 205.242 707.696 201.371 C 708.415 199.242, 709.477 196.585, 710.055 195.467 C 710.633 194.349, 712.364 189.399, 713.901 184.467 L 716.696 175.500 741.089 175.500 L 765.483 175.500 770.583 190.408 L 775.684 205.317 790.342 205.490 L 805 205.664 805 203.300 C 805 202, 804.283 199.263, 803.406 197.218 C 802.529 195.173, 799.796 188.100, 797.333 181.500 C 794.870 174.900, 790.906 164.325, 788.525 158 C 786.143 151.675, 782.334 141.550, 780.060 135.500 C 777.786 129.450, 775.300 123.150, 774.536 121.500 C 773.772 119.850, 771.569 114.225, 769.641 109 C 762.041 88.404, 758.924 80.355, 757.248 77 L 755.499 73.500 742 73.250 C 734.575 73.112, 727.966 73.346, 727.314 73.769 M 1071.734 96.025 C 1065.745 97.536, 1060.869 100.452, 1055.620 105.659 C 1046.381 114.823, 1040.899 131.997, 1043.123 144.804 C 1045.789 160.150, 1051.112 169.353, 1061.199 176.053 C 1068.742 181.063, 1073.940 182.359, 1084.313 181.814 C 1094.304 181.290, 1099.687 178.967, 1107.540 171.790 C 1111.395 168.266, 1114.106 164.538, 1116.735 159.146 C 1120.428 151.573, 1120.463 151.381, 1120.482 139 C 1120.500 126.522, 1120.493 126.486, 1116.589 118.243 C 1112.081 108.725, 1104.977 101.227, 1097.291 97.873 C 1091.818 95.485, 1077.870 94.476, 1071.734 96.025 M 855 115.500 L 855 135 870.435 135 C 878.924 135, 887.048 134.552, 888.488 134.005 C 894.239 131.818, 898.992 126.836, 900.598 121.311 C 901.986 116.536, 901.987 115.469, 900.611 110.735 C 898.704 104.174, 893.994 99.404, 887.488 97.446 C 884.296 96.486, 878.034 96, 868.841 96 L 855 96 855 115.500 M 739.751 112.473 C 736.777 121.629, 729.234 142.424, 727.136 147.250 L 725.071 152 740.967 152 L 756.863 152 752.781 140.250 C 750.535 133.787, 747.052 123.763, 745.040 117.973 L 741.383 107.446 739.751 112.473" stroke="none" fill="#fbfbfb" fill-rule="evenodd"/><path d="M 172 7.512 C 169.525 8.207, 161.200 10.428, 153.500 12.446 C 135.921 17.054, 114.437 22.732, 110.500 23.810 C 108.198 24.441, 107.423 25.291, 107.169 27.467 C 106.885 29.898, 108.228 31.697, 116.594 40.094 L 126.349 49.886 118.458 59.193 C 85.252 98.359, 54.570 123.639, 14 145.261 C 1.307 152.026, 1.692 151.667, 2.297 156.178 C 3.464 164.878, 7.950 165.746, 29.669 161.479 C 63.842 154.764, 97.736 139.174, 122.500 118.779 C 131.936 111.009, 146.625 96.333, 154.810 86.500 C 158.931 81.550, 162.673 77.354, 163.126 77.175 C 163.579 76.996, 167.632 79.809, 172.131 83.425 C 179.971 89.726, 184.028 91.382, 185.558 88.907 C 186.729 87.011, 187.118 10.090, 185.967 7.938 C 184.744 5.653, 179.218 5.485, 172 7.512 M 205.750 60.080 C 204.104 61.039, 204 66.462, 204 151.550 L 204 242 207.446 242 C 211.821 242, 220.967 236.711, 228.503 229.823 C 238.322 220.850, 245.414 208.650, 248.468 195.482 C 249.758 189.918, 250 178.881, 250 125.495 L 250 62.113 247.777 60.557 C 245.951 59.277, 242.166 59.005, 226.527 59.030 C 215.473 59.048, 206.767 59.488, 205.750 60.080 M 144.571 116.571 C 143.176 117.967, 143 125.228, 143 181.416 C 143 241.445, 143.094 244.775, 144.829 246.345 C 146.396 247.763, 149.387 248, 165.747 248 C 176.246 248, 185.548 247.727, 186.418 247.393 C 187.838 246.848, 188 240.195, 188 182.464 C 188 125.324, 187.825 117.967, 186.429 116.571 C 184.089 114.232, 146.911 114.232, 144.571 116.571 M 83.571 156.571 C 82.196 157.947, 82 163.037, 82.002 197.321 C 82.003 241.011, 82.021 241.136, 88.898 245.730 C 92.094 247.865, 93.295 248, 109.089 248 C 118.325 248, 126.126 247.606, 126.423 247.124 C 126.721 246.642, 127.270 226.468, 127.642 202.292 L 128.319 158.337 125.937 156.669 C 122.483 154.249, 85.977 154.166, 83.571 156.571" stroke="none" fill="#1c83dc" fill-rule="evenodd"/></svg>